<svg width="61" height="113" viewBox="0 0 61 113" fill="none" xmlns="http://www.w3.org/2000/svg">
<path d="M5 1.28809V15.7881L60.5 71.2881" stroke="#3A3A3A"/>
<path d="M3 82.7881L19 65.2881L50.5 97.7881" stroke="#3A3A3A"/>
<path d="M3 16.7881V80.2881L19.5 62.2881L45.5 89.2881V59.7881L3 16.7881Z" fill="#3A3A3A" stroke="#3A3A3A"/>
<path d="M14 27.7881L59.5 72.7881" stroke="#3A3A3A"/>
<path d="M3 55.2881V0.788086" stroke="#3A3A3A"/>
<path d="M19 62.7881L51.5 96.2881" stroke="#3A3A3A"/>
<path d="M8.50781 89.2881V96.2881H6.88781V93.4181H3.70781V96.2881H2.08781V89.2881H3.70781V92.0481H6.88781V89.2881H8.50781ZM12.614 96.3681C12.0473 96.3681 11.5373 96.2514 11.084 96.0181C10.6373 95.7781 10.2873 95.4481 10.034 95.0281C9.78065 94.6081 9.65398 94.1314 9.65398 93.5981C9.65398 93.0648 9.78065 92.5881 10.034 92.1681C10.2873 91.7481 10.6373 91.4214 11.084 91.1881C11.5373 90.9481 12.0473 90.8281 12.614 90.8281C13.1807 90.8281 13.6873 90.9481 14.134 91.1881C14.5807 91.4214 14.9307 91.7481 15.184 92.1681C15.4373 92.5881 15.564 93.0648 15.564 93.5981C15.564 94.1314 15.4373 94.6081 15.184 95.0281C14.9307 95.4481 14.5807 95.7781 14.134 96.0181C13.6873 96.2514 13.1807 96.3681 12.614 96.3681ZM12.614 95.0881C13.014 95.0881 13.3407 94.9548 13.594 94.6881C13.854 94.4148 13.984 94.0514 13.984 93.5981C13.984 93.1448 13.854 92.7848 13.594 92.5181C13.3407 92.2448 13.014 92.1081 12.614 92.1081C12.214 92.1081 11.884 92.2448 11.624 92.5181C11.364 92.7848 11.234 93.1448 11.234 93.5981C11.234 94.0514 11.364 94.4148 11.624 94.6881C11.884 94.9548 12.214 95.0881 12.614 95.0881ZM23.4967 90.8281C24.1701 90.8281 24.7034 91.0281 25.0967 91.4281C25.4967 91.8214 25.6967 92.4148 25.6967 93.2081V96.2881H24.1367V93.4481C24.1367 93.0214 24.0467 92.7048 23.8667 92.4981C23.6934 92.2848 23.4434 92.1781 23.1167 92.1781C22.7501 92.1781 22.4601 92.2981 22.2467 92.5381C22.0334 92.7714 21.9267 93.1214 21.9267 93.5881V96.2881H20.3667V93.4481C20.3667 92.6014 20.0267 92.1781 19.3467 92.1781C18.9867 92.1781 18.7001 92.2981 18.4867 92.5381C18.2734 92.7714 18.1667 93.1214 18.1667 93.5881V96.2881H16.6067V90.9081H18.0967V91.5281C18.2967 91.3014 18.5401 91.1281 18.8267 91.0081C19.1201 90.8881 19.4401 90.8281 19.7867 90.8281C20.1667 90.8281 20.5101 90.9048 20.8167 91.0581C21.1234 91.2048 21.3701 91.4214 21.5567 91.7081C21.7767 91.4281 22.0534 91.2114 22.3867 91.0581C22.7267 90.9048 23.0967 90.8281 23.4967 90.8281ZM32.4236 93.6181C32.4236 93.6381 32.4136 93.7781 32.3936 94.0381H28.3236C28.3969 94.3714 28.5703 94.6348 28.8436 94.8281C29.1169 95.0214 29.4569 95.1181 29.8636 95.1181C30.1436 95.1181 30.3903 95.0781 30.6036 94.9981C30.8236 94.9114 31.0269 94.7781 31.2136 94.5981L32.0436 95.4981C31.5369 96.0781 30.7969 96.3681 29.8236 96.3681C29.2169 96.3681 28.6803 96.2514 28.2136 96.0181C27.7469 95.7781 27.3869 95.4481 27.1336 95.0281C26.8803 94.6081 26.7536 94.1314 26.7536 93.5981C26.7536 93.0714 26.8769 92.5981 27.1236 92.1781C27.3769 91.7514 27.7203 91.4214 28.1536 91.1881C28.5936 90.9481 29.0836 90.8281 29.6236 90.8281C30.1503 90.8281 30.6269 90.9414 31.0536 91.1681C31.4803 91.3948 31.8136 91.7214 32.0536 92.1481C32.3003 92.5681 32.4236 93.0581 32.4236 93.6181ZM29.6336 92.0081C29.2803 92.0081 28.9836 92.1081 28.7436 92.3081C28.5036 92.5081 28.3569 92.7814 28.3036 93.1281H30.9536C30.9003 92.7881 30.7536 92.5181 30.5136 92.3181C30.2736 92.1114 29.9803 92.0081 29.6336 92.0081Z" fill="#3A3A3A"/>
<path d="M1.64188 99.2881H4.41188C5.13854 99.2881 5.78188 99.4381 6.34188 99.7381C6.90854 100.038 7.34854 100.455 7.66188 100.988C7.97521 101.515 8.13188 102.115 8.13188 102.788C8.13188 103.461 7.97521 104.065 7.66188 104.598C7.34854 105.125 6.90854 105.538 6.34188 105.838C5.78188 106.138 5.13854 106.288 4.41188 106.288H1.64188V99.2881ZM4.37188 105.828C5.01854 105.828 5.58854 105.701 6.08188 105.448C6.57521 105.188 6.95521 104.828 7.22188 104.368C7.48854 103.908 7.62188 103.381 7.62188 102.788C7.62188 102.195 7.48854 101.668 7.22188 101.208C6.95521 100.748 6.57521 100.391 6.08188 100.138C5.58854 99.8781 5.01854 99.7481 4.37188 99.7481H2.15188V105.828H4.37188ZM14.1536 103.798H9.66359C9.67693 104.205 9.78026 104.568 9.97359 104.888C10.1669 105.201 10.4269 105.445 10.7536 105.618C11.0869 105.791 11.4603 105.878 11.8736 105.878C12.2136 105.878 12.5269 105.818 12.8136 105.698C13.1069 105.571 13.3503 105.388 13.5436 105.148L13.8336 105.478C13.6069 105.751 13.3203 105.961 12.9736 106.108C12.6336 106.255 12.2636 106.328 11.8636 106.328C11.3436 106.328 10.8803 106.215 10.4736 105.988C10.0669 105.761 9.74693 105.448 9.51359 105.048C9.28693 104.648 9.17359 104.191 9.17359 103.678C9.17359 103.171 9.28026 102.718 9.49359 102.318C9.71359 101.911 10.0136 101.595 10.3936 101.368C10.7736 101.141 11.2003 101.028 11.6736 101.028C12.1469 101.028 12.5703 101.141 12.9436 101.368C13.3236 101.588 13.6203 101.898 13.8336 102.298C14.0536 102.698 14.1636 103.151 14.1636 103.658L14.1536 103.798ZM11.6736 101.468C11.3069 101.468 10.9769 101.551 10.6836 101.718C10.3903 101.878 10.1536 102.108 9.97359 102.408C9.80026 102.701 9.70026 103.035 9.67359 103.408H13.6736C13.6536 103.035 13.5536 102.701 13.3736 102.408C13.1936 102.115 12.9569 101.885 12.6636 101.718C12.3703 101.551 12.0403 101.468 11.6736 101.468ZM17.0304 106.328C16.6104 106.328 16.2104 106.265 15.8304 106.138C15.4504 106.011 15.1537 105.851 14.9404 105.658L15.1704 105.258C15.3837 105.438 15.6571 105.588 15.9904 105.708C16.3304 105.828 16.6837 105.888 17.0504 105.888C17.5771 105.888 17.9637 105.801 18.2104 105.628C18.4637 105.455 18.5904 105.215 18.5904 104.908C18.5904 104.688 18.5204 104.515 18.3804 104.388C18.2471 104.261 18.0804 104.168 17.8804 104.108C17.6804 104.048 17.4037 103.985 17.0504 103.918C16.6371 103.845 16.3037 103.765 16.0504 103.678C15.7971 103.591 15.5804 103.451 15.4004 103.258C15.2204 103.065 15.1304 102.798 15.1304 102.458C15.1304 102.045 15.3004 101.705 15.6404 101.438C15.9871 101.165 16.4771 101.028 17.1104 101.028C17.4437 101.028 17.7737 101.075 18.1004 101.168C18.4271 101.261 18.6937 101.385 18.9004 101.538L18.6704 101.938C18.4571 101.785 18.2137 101.668 17.9404 101.588C17.6671 101.508 17.3871 101.468 17.1004 101.468C16.6137 101.468 16.2471 101.558 16.0004 101.738C15.7537 101.918 15.6304 102.155 15.6304 102.448C15.6304 102.681 15.7004 102.865 15.8404 102.998C15.9804 103.125 16.1504 103.221 16.3504 103.288C16.5571 103.348 16.8437 103.415 17.2104 103.488C17.6171 103.561 17.9437 103.641 18.1904 103.728C18.4437 103.808 18.6571 103.941 18.8304 104.128C19.0037 104.315 19.0904 104.571 19.0904 104.898C19.0904 105.331 18.9104 105.678 18.5504 105.938C18.1904 106.198 17.6837 106.328 17.0304 106.328ZM20.4858 101.068H20.9858V106.288H20.4858V101.068ZM20.7358 99.7981C20.6224 99.7981 20.5258 99.7614 20.4458 99.6881C20.3658 99.6081 20.3258 99.5114 20.3258 99.3981C20.3258 99.2848 20.3658 99.1881 20.4458 99.1081C20.5258 99.0281 20.6224 98.9881 20.7358 98.9881C20.8491 98.9881 20.9458 99.0281 21.0258 99.1081C21.1058 99.1814 21.1458 99.2748 21.1458 99.3881C21.1458 99.5014 21.1058 99.5981 21.0258 99.6781C20.9458 99.7581 20.8491 99.7981 20.7358 99.7981ZM27.7932 101.068V105.728C27.7932 106.595 27.5832 107.235 27.1632 107.648C26.7432 108.061 26.1099 108.268 25.2632 108.268C24.7832 108.268 24.3299 108.195 23.9032 108.048C23.4765 107.901 23.1332 107.698 22.8732 107.438L23.1432 107.058C23.4032 107.298 23.7165 107.485 24.0832 107.618C24.4499 107.751 24.8399 107.818 25.2532 107.818C25.9465 107.818 26.4599 107.651 26.7932 107.318C27.1265 106.991 27.2932 106.481 27.2932 105.788V104.908C27.0799 105.288 26.7832 105.581 26.4032 105.788C26.0232 105.995 25.5965 106.098 25.1232 106.098C24.6365 106.098 24.1932 105.991 23.7932 105.778C23.3999 105.558 23.0899 105.255 22.8632 104.868C22.6365 104.481 22.5232 104.045 22.5232 103.558C22.5232 103.071 22.6365 102.635 22.8632 102.248C23.0899 101.861 23.3999 101.561 23.7932 101.348C24.1932 101.135 24.6365 101.028 25.1232 101.028C25.6032 101.028 26.0365 101.135 26.4232 101.348C26.8099 101.561 27.1065 101.861 27.3132 102.248V101.068H27.7932ZM25.1632 105.648C25.5699 105.648 25.9365 105.561 26.2632 105.388C26.5899 105.208 26.8432 104.961 27.0232 104.648C27.2099 104.328 27.3032 103.965 27.3032 103.558C27.3032 103.151 27.2099 102.791 27.0232 102.478C26.8432 102.165 26.5899 101.921 26.2632 101.748C25.9365 101.568 25.5699 101.478 25.1632 101.478C24.7565 101.478 24.3899 101.568 24.0632 101.748C23.7432 101.921 23.4899 102.165 23.3032 102.478C23.1232 102.791 23.0332 103.151 23.0332 103.558C23.0332 103.965 23.1232 104.328 23.3032 104.648C23.4899 104.961 23.7432 105.208 24.0632 105.388C24.3899 105.561 24.7565 105.648 25.1632 105.648ZM32.4596 101.028C33.1129 101.028 33.6296 101.218 34.0096 101.598C34.3896 101.978 34.5796 102.525 34.5796 103.238V106.288H34.0796V103.278C34.0796 102.691 33.9296 102.245 33.6296 101.938C33.3363 101.631 32.9229 101.478 32.3896 101.478C31.7763 101.478 31.2929 101.661 30.9396 102.028C30.5863 102.395 30.4096 102.888 30.4096 103.508V106.288H29.9096V101.068H30.3896V102.198C30.5696 101.831 30.8363 101.545 31.1896 101.338C31.5496 101.131 31.9729 101.028 32.4596 101.028Z" fill="#3A3A3A"/>
</svg>
