<svg width="126" height="48" viewBox="0 0 126 48" fill="none" xmlns="http://www.w3.org/2000/svg">
<path d="M13.37 33.6521C13.442 33.8081 13.478 33.9641 13.478 34.1201C13.478 34.3961 13.364 34.6301 13.136 34.8221C12.92 35.0141 12.668 35.1101 12.38 35.1101C12.188 35.1101 12.008 35.0621 11.84 34.9661C11.672 34.8581 11.54 34.6961 11.444 34.4801L10.364 32.0681H4.028L2.948 34.4801C2.852 34.6961 2.72 34.8581 2.552 34.9661C2.384 35.0621 2.198 35.1101 1.994 35.1101C1.718 35.1101 1.466 35.0141 1.238 34.8221C1.01 34.6301 0.896 34.3961 0.896 34.1201C0.896 33.9641 0.932 33.8081 1.004 33.6521L5.972 22.9781C6.08 22.7381 6.242 22.5581 6.458 22.4381C6.686 22.3061 6.926 22.2401 7.178 22.2401C7.43 22.2401 7.664 22.3061 7.88 22.4381C8.108 22.5581 8.276 22.7381 8.384 22.9781L13.37 33.6521ZM4.82 30.2681H9.572L7.196 24.9221L4.82 30.2681ZM26.4594 33.5801C26.6034 33.7961 26.6754 34.0061 26.6754 34.2101C26.6754 34.4861 26.5614 34.7141 26.3334 34.8941C26.1174 35.0741 25.8594 35.1641 25.5594 35.1641C25.3674 35.1641 25.1814 35.1221 25.0014 35.0381C24.8334 34.9421 24.6894 34.8041 24.5694 34.6241L22.1754 30.9881C21.9354 30.6041 21.6774 30.3341 21.4014 30.1781C21.1374 30.0221 20.7894 29.9441 20.3574 29.9441H18.5934V33.9761C18.5934 34.3361 18.4914 34.6241 18.2874 34.8401C18.0834 35.0441 17.8074 35.1461 17.4594 35.1461C17.1114 35.1461 16.8294 35.0441 16.6134 34.8401C16.4094 34.6241 16.3074 34.3361 16.3074 33.9761V23.4461C16.3074 23.0981 16.4034 22.8281 16.5954 22.6361C16.7994 22.4441 17.0754 22.3481 17.4234 22.3481H21.9234C23.3634 22.3481 24.4554 22.6721 25.1994 23.3201C25.9554 23.9561 26.3334 24.8801 26.3334 26.0921C26.3334 27.0761 26.0514 27.8861 25.4874 28.5221C24.9354 29.1461 24.1494 29.5481 23.1294 29.7281C23.4774 29.8121 23.7834 29.9621 24.0474 30.1781C24.3114 30.3941 24.5694 30.6941 24.8214 31.0781L26.4594 33.5801ZM21.5994 28.1621C22.4754 28.1621 23.1174 28.0001 23.5254 27.6761C23.9334 27.3401 24.1374 26.8301 24.1374 26.1461C24.1374 25.4501 23.9334 24.9461 23.5254 24.6341C23.1174 24.3101 22.4754 24.1481 21.5994 24.1481H18.5754V28.1621H21.5994ZM35.4851 35.2001C34.2611 35.2001 33.1871 34.9361 32.2631 34.4081C31.3511 33.8801 30.6491 33.1241 30.1571 32.1401C29.6651 31.1561 29.4191 30.0041 29.4191 28.6841C29.4191 27.3641 29.6651 26.2181 30.1571 25.2461C30.6491 24.2621 31.3511 23.5061 32.2631 22.9781C33.1871 22.4501 34.2611 22.1861 35.4851 22.1861C36.2771 22.1861 37.0211 22.3061 37.7171 22.5461C38.4131 22.7741 39.0311 23.1101 39.5711 23.5541C39.7271 23.6741 39.8351 23.8001 39.8951 23.9321C39.9551 24.0641 39.9851 24.2261 39.9851 24.4181C39.9851 24.6821 39.9131 24.9041 39.7691 25.0841C39.6251 25.2641 39.4511 25.3541 39.2471 25.3541C39.0071 25.3541 38.7611 25.2701 38.5091 25.1021C37.9931 24.7181 37.5131 24.4541 37.0691 24.3101C36.6251 24.1541 36.1331 24.0761 35.5931 24.0761C34.3451 24.0761 33.3971 24.4661 32.7491 25.2461C32.1131 26.0261 31.7951 27.1721 31.7951 28.6841C31.7951 30.2081 32.1131 31.3601 32.7491 32.1401C33.3971 32.9201 34.3451 33.3101 35.5931 33.3101C36.1091 33.3101 36.5831 33.2321 37.0151 33.0761C37.4591 32.9201 37.9571 32.6561 38.5091 32.2841C38.6291 32.2121 38.7491 32.1521 38.8691 32.1041C38.9891 32.0561 39.1151 32.0321 39.2471 32.0321C39.4511 32.0321 39.6251 32.1221 39.7691 32.3021C39.9131 32.4821 39.9851 32.7041 39.9851 32.9681C39.9851 33.1481 39.9551 33.3101 39.8951 33.4541C39.8351 33.5861 39.7271 33.7121 39.5711 33.8321C39.0311 34.2761 38.4131 34.6181 37.7171 34.8581C37.0211 35.0861 36.2771 35.2001 35.4851 35.2001ZM53.0123 22.2581C53.3603 22.2581 53.6363 22.3661 53.8403 22.5821C54.0443 22.7861 54.1463 23.0621 54.1463 23.4101V33.9761C54.1463 34.3241 54.0383 34.6061 53.8223 34.8221C53.6183 35.0381 53.3483 35.1461 53.0123 35.1461C52.6643 35.1461 52.3883 35.0381 52.1843 34.8221C51.9803 34.6061 51.8783 34.3241 51.8783 33.9761V29.5301H45.3803V33.9761C45.3803 34.3241 45.2723 34.6061 45.0563 34.8221C44.8523 35.0381 44.5763 35.1461 44.2283 35.1461C43.8923 35.1461 43.6163 35.0381 43.4003 34.8221C43.1963 34.6061 43.0943 34.3241 43.0943 33.9761V23.4101C43.0943 23.0621 43.1963 22.7861 43.4003 22.5821C43.6043 22.3661 43.8803 22.2581 44.2283 22.2581C44.5763 22.2581 44.8523 22.3661 45.0563 22.5821C45.2723 22.7861 45.3803 23.0621 45.3803 23.4101V27.6581H51.8783V23.4101C51.8783 23.0621 51.9803 22.7861 52.1843 22.5821C52.3883 22.3661 52.6643 22.2581 53.0123 22.2581ZM59.1076 35.1461C58.7596 35.1461 58.4776 35.0381 58.2616 34.8221C58.0576 34.6061 57.9556 34.3241 57.9556 33.9761V23.4101C57.9556 23.0621 58.0576 22.7861 58.2616 22.5821C58.4776 22.3661 58.7596 22.2581 59.1076 22.2581C59.4676 22.2581 59.7496 22.3661 59.9536 22.5821C60.1696 22.7861 60.2776 23.0621 60.2776 23.4101V33.9761C60.2776 34.3241 60.1696 34.6061 59.9536 34.8221C59.7496 35.0381 59.4676 35.1461 59.1076 35.1461ZM71.2168 35.1461C70.8688 35.1461 70.5868 35.0381 70.3708 34.8221C70.1668 34.6061 70.0648 34.3241 70.0648 33.9761V23.4461C70.0648 23.0981 70.1608 22.8281 70.3528 22.6361C70.5568 22.4441 70.8328 22.3481 71.1808 22.3481H77.4988C78.2308 22.3481 78.5968 22.6601 78.5968 23.2841C78.5968 23.8961 78.2308 24.2021 77.4988 24.2021H72.3508V27.6581H77.1388C77.8708 27.6581 78.2368 27.9701 78.2368 28.5941C78.2368 29.2061 77.8708 29.5121 77.1388 29.5121H72.3508V33.9761C72.3508 34.3241 72.2488 34.6061 72.0448 34.8221C71.8408 35.0381 71.5648 35.1461 71.2168 35.1461ZM82.4381 35.0381C82.0901 35.0381 81.8201 34.9421 81.6281 34.7501C81.4361 34.5581 81.3401 34.2941 81.3401 33.9581V23.4101C81.3401 23.0621 81.4421 22.7861 81.6461 22.5821C81.8621 22.3661 82.1441 22.2581 82.4921 22.2581C82.8521 22.2581 83.1341 22.3661 83.3381 22.5821C83.5541 22.7861 83.6621 23.0621 83.6621 23.4101V33.1301H88.7201C89.4401 33.1301 89.8001 33.4481 89.8001 34.0841C89.8001 34.7201 89.4401 35.0381 88.7201 35.0381H82.4381ZM97.3709 35.2001C96.1349 35.2001 95.0609 34.9361 94.1489 34.4081C93.2489 33.8801 92.5529 33.1241 92.0609 32.1401C91.5689 31.1561 91.3229 30.0041 91.3229 28.6841C91.3229 27.3641 91.5629 26.2181 92.0429 25.2461C92.5349 24.2621 93.2369 23.5061 94.1489 22.9781C95.0609 22.4501 96.1349 22.1861 97.3709 22.1861C98.6069 22.1861 99.6749 22.4501 100.575 22.9781C101.487 23.5061 102.183 24.2621 102.663 25.2461C103.155 26.2181 103.401 27.3641 103.401 28.6841C103.401 30.0041 103.155 31.1561 102.663 32.1401C102.171 33.1241 101.469 33.8801 100.557 34.4081C99.6569 34.9361 98.5949 35.2001 97.3709 35.2001ZM97.3709 33.3461C98.5349 33.3461 99.4409 32.9441 100.089 32.1401C100.749 31.3361 101.079 30.1841 101.079 28.6841C101.079 27.1841 100.749 26.0381 100.089 25.2461C99.4409 24.4421 98.5349 24.0401 97.3709 24.0401C96.1949 24.0401 95.2769 24.4421 94.6169 25.2461C93.9689 26.0381 93.6449 27.1841 93.6449 28.6841C93.6449 30.1841 93.9689 31.3361 94.6169 32.1401C95.2769 32.9441 96.1949 33.3461 97.3709 33.3461ZM122.422 22.9601C122.506 22.7201 122.638 22.5401 122.818 22.4201C123.01 22.3001 123.22 22.2401 123.448 22.2401C123.736 22.2401 123.982 22.3301 124.186 22.5101C124.402 22.6901 124.51 22.9301 124.51 23.2301C124.51 23.3381 124.48 23.4941 124.42 23.6981L120.55 34.4081C120.454 34.6481 120.292 34.8341 120.064 34.9661C119.848 35.0981 119.608 35.1641 119.344 35.1641C119.08 35.1641 118.834 35.0981 118.606 34.9661C118.378 34.8341 118.222 34.6481 118.138 34.4081L115.15 25.9301L112.108 34.4081C112.012 34.6481 111.85 34.8341 111.622 34.9661C111.406 35.0981 111.166 35.1641 110.902 35.1641C110.638 35.1641 110.392 35.0981 110.164 34.9661C109.948 34.8341 109.798 34.6481 109.714 34.4081L105.844 23.6981C105.784 23.5181 105.754 23.3621 105.754 23.2301C105.754 22.9301 105.862 22.6901 106.078 22.5101C106.306 22.3301 106.57 22.2401 106.87 22.2401C107.11 22.2401 107.326 22.3001 107.518 22.4201C107.71 22.5401 107.848 22.7201 107.932 22.9601L110.992 31.7621L114.142 23.0141C114.226 22.7741 114.364 22.5881 114.556 22.4561C114.748 22.3121 114.958 22.2401 115.186 22.2401C115.414 22.2401 115.624 22.3121 115.816 22.4561C116.02 22.5881 116.164 22.7801 116.248 23.0321L119.308 31.8701L122.422 22.9601Z" fill="#3A3A3A"/>
<rect x="36.5" y="0.0380859" width="54" height="15" fill="#3A3A3A"/>
<path d="M43.06 11.1101C42.6493 11.1101 42.26 11.0568 41.892 10.9501C41.5293 10.8381 41.2333 10.6888 41.004 10.5021C40.8813 10.4114 40.82 10.2834 40.82 10.1181C40.82 10.0061 40.852 9.91009 40.916 9.83009C40.9853 9.74475 41.0653 9.70209 41.156 9.70209C41.252 9.70209 41.3613 9.73942 41.484 9.81409C41.7133 9.97942 41.9533 10.0994 42.204 10.1741C42.4547 10.2488 42.732 10.2861 43.036 10.2861C43.4253 10.2861 43.724 10.2194 43.932 10.0861C44.14 9.94742 44.244 9.74742 44.244 9.48609C44.244 9.28342 44.1453 9.12875 43.948 9.02209C43.756 8.91009 43.4333 8.80342 42.98 8.70209C42.5107 8.60075 42.1293 8.48342 41.836 8.35009C41.5427 8.21675 41.3213 8.04609 41.172 7.83809C41.0227 7.63009 40.948 7.36609 40.948 7.04609C40.948 6.71542 41.0413 6.41942 41.228 6.15809C41.4147 5.89675 41.6733 5.69409 42.004 5.55009C42.34 5.40075 42.716 5.32609 43.132 5.32609C43.8947 5.32609 44.516 5.52875 44.996 5.93409C45.0653 5.99275 45.1133 6.05142 45.14 6.11009C45.172 6.16342 45.188 6.23275 45.188 6.31809C45.188 6.43009 45.1533 6.52875 45.084 6.61409C45.02 6.69409 44.9427 6.73409 44.852 6.73409C44.7987 6.73409 44.748 6.72609 44.7 6.71009C44.6573 6.69409 44.5987 6.66475 44.524 6.62209C44.3053 6.46209 44.092 6.34475 43.884 6.27009C43.6813 6.19009 43.4307 6.15009 43.132 6.15009C42.7693 6.15009 42.4813 6.22475 42.268 6.37409C42.06 6.51809 41.956 6.72075 41.956 6.98209C41.956 7.20075 42.0493 7.36875 42.236 7.48609C42.4227 7.60342 42.74 7.71275 43.188 7.81409C43.6627 7.92075 44.0467 8.04075 44.34 8.17409C44.6387 8.30209 44.8653 8.46742 45.02 8.67009C45.18 8.87275 45.26 9.12609 45.26 9.43009C45.26 9.76075 45.1667 10.0541 44.98 10.3101C44.7987 10.5608 44.54 10.7581 44.204 10.9021C43.8733 11.0408 43.492 11.1101 43.06 11.1101ZM51.1004 11.0781C50.9404 11.0781 50.8124 11.0328 50.7164 10.9421C50.6257 10.8461 50.5804 10.7208 50.5804 10.5661V6.24609H49.1244C48.8044 6.24609 48.6444 6.10475 48.6444 5.82209C48.6444 5.53942 48.8044 5.39809 49.1244 5.39809H53.0684C53.3884 5.39809 53.5484 5.53942 53.5484 5.82209C53.5484 6.10475 53.3884 6.24609 53.0684 6.24609H51.6124V10.5661C51.6124 10.7208 51.5644 10.8461 51.4684 10.9421C51.3777 11.0328 51.255 11.0781 51.1004 11.0781ZM59.6466 11.1101C58.8733 11.1101 58.2866 10.9101 57.8866 10.5101C57.4866 10.1101 57.2866 9.52609 57.2866 8.75809V5.87009C57.2866 5.71542 57.332 5.59275 57.4226 5.50209C57.5133 5.40609 57.636 5.35809 57.7906 5.35809C57.9453 5.35809 58.068 5.40609 58.1586 5.50209C58.2493 5.59275 58.2946 5.71542 58.2946 5.87009V8.81409C58.2946 9.29942 58.4093 9.66742 58.6386 9.91809C58.868 10.1634 59.204 10.2861 59.6466 10.2861C60.084 10.2861 60.4173 10.1608 60.6466 9.91009C60.876 9.65942 60.9906 9.29409 60.9906 8.81409V5.87009C60.9906 5.71542 61.036 5.59275 61.1266 5.50209C61.2173 5.40609 61.34 5.35809 61.4946 5.35809C61.6493 5.35809 61.772 5.40609 61.8626 5.50209C61.9533 5.59275 61.9986 5.71542 61.9986 5.87009V8.75809C61.9986 9.52075 61.7986 10.1048 61.3986 10.5101C60.9986 10.9101 60.4146 11.1101 59.6466 11.1101ZM66.8418 11.0381C66.6871 11.0381 66.5645 10.9954 66.4738 10.9101C66.3885 10.8248 66.3458 10.7048 66.3458 10.5501V5.88609C66.3458 5.73142 66.3885 5.61142 66.4738 5.52609C66.5645 5.44075 66.6871 5.39809 66.8418 5.39809H68.4258C69.3485 5.39809 70.0631 5.64609 70.5698 6.14209C71.0818 6.63275 71.3378 7.32342 71.3378 8.21409C71.3378 9.11009 71.0818 9.80609 70.5698 10.3021C70.0631 10.7928 69.3485 11.0381 68.4258 11.0381H66.8418ZM68.3618 10.1981C69.6578 10.1981 70.3058 9.53675 70.3058 8.21409C70.3058 6.89675 69.6578 6.23809 68.3618 6.23809H67.3778V10.1981H68.3618ZM76.0491 11.0861C75.8944 11.0861 75.7691 11.0381 75.6731 10.9421C75.5824 10.8461 75.5371 10.7208 75.5371 10.5661V5.87009C75.5371 5.71542 75.5824 5.59275 75.6731 5.50209C75.7691 5.40609 75.8944 5.35809 76.0491 5.35809C76.2091 5.35809 76.3344 5.40609 76.4251 5.50209C76.5211 5.59275 76.5691 5.71542 76.5691 5.87009V10.5661C76.5691 10.7208 76.5211 10.8461 76.4251 10.9421C76.3344 11.0381 76.2091 11.0861 76.0491 11.0861ZM83.4591 11.1101C82.9097 11.1101 82.4324 10.9928 82.0271 10.7581C81.6271 10.5234 81.3177 10.1874 81.0991 9.75009C80.8804 9.31275 80.7711 8.80075 80.7711 8.21409C80.7711 7.62742 80.8777 7.11809 81.0911 6.68609C81.3097 6.24875 81.6217 5.91275 82.0271 5.67809C82.4324 5.44342 82.9097 5.32609 83.4591 5.32609C84.0084 5.32609 84.4831 5.44342 84.8831 5.67809C85.2884 5.91275 85.5977 6.24875 85.8111 6.68609C86.0297 7.11809 86.1391 7.62742 86.1391 8.21409C86.1391 8.80075 86.0297 9.31275 85.8111 9.75009C85.5924 10.1874 85.2804 10.5234 84.8751 10.7581C84.4751 10.9928 84.0031 11.1101 83.4591 11.1101ZM83.4591 10.2861C83.9764 10.2861 84.3791 10.1074 84.6671 9.75009C84.9604 9.39275 85.1071 8.88075 85.1071 8.21409C85.1071 7.54742 84.9604 7.03809 84.6671 6.68609C84.3791 6.32875 83.9764 6.15009 83.4591 6.15009C82.9364 6.15009 82.5284 6.32875 82.2351 6.68609C81.9471 7.03809 81.8031 7.54742 81.8031 8.21409C81.8031 8.88075 81.9471 9.39275 82.2351 9.75009C82.5284 10.1074 82.9364 10.2861 83.4591 10.2861Z" fill="#F4EDED"/>
</svg>
