<svg width="92" height="87" viewBox="0 0 92 87" fill="none" xmlns="http://www.w3.org/2000/svg">
<path d="M3.92285 69.7744C3.69824 69.7842 3.53548 69.8102 3.43457 69.8525C3.33366 69.8949 3.2653 69.973 3.22949 70.0869C3.19368 70.2008 3.17578 70.3831 3.17578 70.6338V75.5947C3.17578 75.8454 3.19368 76.0277 3.22949 76.1416C3.2653 76.2555 3.33366 76.3337 3.43457 76.376C3.53548 76.4183 3.69824 76.4443 3.92285 76.4541V76.6543C3.56803 76.6348 3.0651 76.625 2.41406 76.625C1.70117 76.625 1.17546 76.6348 0.836914 76.6543V76.4541C1.05827 76.4443 1.2194 76.4183 1.32031 76.376C1.42122 76.3337 1.48958 76.2555 1.52539 76.1416C1.56445 76.0277 1.58398 75.8454 1.58398 75.5947V70.6338C1.58398 70.3831 1.56445 70.2008 1.52539 70.0869C1.48958 69.973 1.42122 69.8949 1.32031 69.8525C1.2194 69.8102 1.05827 69.7842 0.836914 69.7744V69.5742C1.1722 69.5938 1.69792 69.6035 2.41406 69.6035C3.0651 69.6035 3.56803 69.5938 3.92285 69.5742V69.7744ZM15.1336 69.7744C14.9155 69.8037 14.7544 69.8607 14.6502 69.9453C14.5493 70.0267 14.4793 70.1536 14.4402 70.3262C14.4044 70.4954 14.3865 70.751 14.3865 71.0928V76.6738C14.3377 76.6706 14.2563 76.6689 14.1424 76.6689C14.0252 76.6689 13.9357 76.6706 13.8738 76.6738L9.53301 71.1758V75.0137C9.53301 75.4076 9.55417 75.6973 9.59648 75.8828C9.6388 76.0651 9.72506 76.1986 9.85527 76.2832C9.98874 76.3678 10.2052 76.4248 10.5047 76.4541V76.6543C10.2475 76.6348 9.88783 76.625 9.42559 76.625C9.05775 76.625 8.76803 76.6348 8.55645 76.6543V76.4541C8.77454 76.4248 8.93405 76.3695 9.03496 76.2881C9.13913 76.2035 9.20911 76.0765 9.24492 75.9072C9.28398 75.7347 9.30352 75.4775 9.30352 75.1357V70.6338C9.30352 70.3831 9.28398 70.2008 9.24492 70.0869C9.20911 69.973 9.14076 69.8949 9.03984 69.8525C8.93893 69.8102 8.7778 69.7842 8.55645 69.7744V69.5742C8.76803 69.5938 9.05775 69.6035 9.42559 69.6035C9.76087 69.6035 10.0473 69.5938 10.285 69.5742L14.157 74.3447V71.2148C14.157 70.821 14.1359 70.5329 14.0936 70.3506C14.0512 70.165 13.9633 70.0299 13.8299 69.9453C13.6997 69.8607 13.4848 69.8037 13.1854 69.7744V69.5742C13.4425 69.5938 13.8022 69.6035 14.2645 69.6035C14.6355 69.6035 14.9253 69.5938 15.1336 69.5742V69.7744ZM19.6695 72.0352C19.6923 71.8138 19.7037 71.5599 19.7037 71.2734C19.7037 70.8177 19.6793 70.2513 19.6305 69.5742C20.2392 69.5938 21.2695 69.6035 22.7213 69.6035C24.1731 69.6035 25.2001 69.5938 25.8023 69.5742C25.7535 70.2513 25.7291 70.8177 25.7291 71.2734C25.7291 71.5599 25.7405 71.8138 25.7633 72.0352H25.5338C25.4231 71.4785 25.288 71.0391 25.1285 70.7168C24.969 70.3913 24.777 70.1585 24.5523 70.0186C24.331 69.8753 24.0608 69.8037 23.7418 69.8037H23.5123V75.5166C23.5123 75.7933 23.54 75.9951 23.5953 76.1221C23.6539 76.249 23.7548 76.3353 23.898 76.3809C24.0445 76.4264 24.2724 76.4508 24.5816 76.4541V76.6543C23.7418 76.6348 23.1087 76.625 22.6822 76.625C22.2623 76.625 21.652 76.6348 20.8512 76.6543V76.4541C21.1637 76.4508 21.3915 76.4264 21.5348 76.3809C21.6812 76.3353 21.7822 76.249 21.8375 76.1221C21.8928 75.9951 21.9205 75.7933 21.9205 75.5166V69.8037H21.7008C21.3785 69.8037 21.1051 69.8737 20.8805 70.0137C20.6591 70.1536 20.4687 70.3864 20.3092 70.7119C20.1497 71.0342 20.013 71.4753 19.899 72.0352H19.6695ZM35.8607 74.2959C35.8412 74.514 35.8314 74.7939 35.8314 75.1357C35.8314 75.7477 35.8542 76.2539 35.8998 76.6543C35.4473 76.6348 34.684 76.625 33.6098 76.625C32.1579 76.625 31.0723 76.6348 30.3529 76.6543V76.4541C30.5743 76.4443 30.7354 76.4183 30.8363 76.376C30.9372 76.3337 31.0056 76.2555 31.0414 76.1416C31.0805 76.0277 31.1 75.8454 31.1 75.5947V70.6338C31.1 70.3831 31.0805 70.2008 31.0414 70.0869C31.0056 69.973 30.9372 69.8949 30.8363 69.8525C30.7354 69.8102 30.5743 69.7842 30.3529 69.7744V69.5742C31.0723 69.5938 32.1579 69.6035 33.6098 69.6035C34.5896 69.6035 35.2862 69.5938 35.6996 69.5742C35.654 70.1243 35.6313 70.6175 35.6313 71.0537C35.6313 71.3499 35.641 71.5762 35.6605 71.7324H35.4311C35.3627 71.2474 35.2585 70.8649 35.1186 70.585C34.9786 70.305 34.8012 70.1048 34.5863 69.9844C34.3715 69.8639 34.1062 69.8037 33.7904 69.8037H33.3803C33.1719 69.8037 33.0206 69.8216 32.9262 69.8574C32.835 69.89 32.7732 69.9551 32.7406 70.0527C32.7081 70.1471 32.6918 70.3018 32.6918 70.5166V72.9922H33.0092C33.3673 72.9922 33.6374 72.862 33.8197 72.6016C34.002 72.3411 34.129 72.0319 34.2006 71.6738H34.4301C34.4073 72.0026 34.3959 72.3167 34.3959 72.6162L34.4008 73.0947C34.4008 73.4333 34.4203 73.9069 34.4594 74.5156H34.2299C34.0964 73.6335 33.6895 73.1924 33.0092 73.1924H32.6918V75.7119C32.6918 75.9268 32.7081 76.083 32.7406 76.1807C32.7732 76.2751 32.835 76.3402 32.9262 76.376C33.0206 76.4085 33.1719 76.4248 33.3803 76.4248H33.8734C34.3422 76.4248 34.7214 76.262 35.0111 75.9365C35.3041 75.611 35.5108 75.0641 35.6313 74.2959H35.8607ZM47.4182 76.2148C47.2359 76.4199 47.0406 76.568 46.8322 76.6592C46.6271 76.7503 46.3798 76.7959 46.09 76.7959C45.7059 76.7959 45.4016 76.7145 45.177 76.5518C44.9523 76.389 44.8059 76.109 44.7375 75.7119L44.5568 74.7158C44.4982 74.3936 44.4364 74.1348 44.3713 73.9395C44.3094 73.7409 44.2183 73.5846 44.0979 73.4707C43.9807 73.3535 43.8244 73.2949 43.6291 73.2949H42.9797V75.5947C42.9797 75.8454 42.9976 76.0277 43.0334 76.1416C43.0692 76.2555 43.1376 76.3337 43.2385 76.376C43.3394 76.4183 43.5021 76.4443 43.7268 76.4541V76.6543C43.3719 76.6348 42.869 76.625 42.218 76.625C41.5051 76.625 40.9794 76.6348 40.6408 76.6543V76.4541C40.8622 76.4443 41.0233 76.4183 41.1242 76.376C41.2251 76.3337 41.2935 76.2555 41.3293 76.1416C41.3684 76.0277 41.3879 75.8454 41.3879 75.5947V70.6338C41.3879 70.3831 41.3684 70.2008 41.3293 70.0869C41.2935 69.973 41.2251 69.8949 41.1242 69.8525C41.0233 69.8102 40.8622 69.7842 40.6408 69.7744V69.5742C40.9794 69.5938 41.4855 69.6035 42.1594 69.6035C42.4263 69.6035 42.7225 69.6003 43.048 69.5938C43.3736 69.5872 43.5998 69.584 43.7268 69.584C44.6447 69.584 45.3365 69.7354 45.802 70.0381C46.2674 70.3376 46.5002 70.7656 46.5002 71.3223C46.5002 71.6185 46.4302 71.9001 46.2902 72.167C46.1503 72.4339 45.9126 72.6667 45.5773 72.8652C45.2421 73.0605 44.7993 73.1908 44.2492 73.2559H44.259C44.6626 73.2917 44.993 73.36 45.2502 73.4609C45.5106 73.5618 45.7141 73.7035 45.8605 73.8857C46.007 74.0648 46.1096 74.2943 46.1682 74.5742L46.3977 75.6045C46.453 75.8747 46.5148 76.0618 46.5832 76.166C46.6548 76.2702 46.7541 76.3223 46.8811 76.3223C46.9592 76.319 47.0275 76.2995 47.0861 76.2637C47.1447 76.2279 47.2098 76.1709 47.2814 76.0928L47.4182 76.2148ZM43.4094 73.0947C43.7837 73.0947 44.0751 73.0231 44.2834 72.8799C44.495 72.7367 44.6398 72.5446 44.718 72.3037C44.7993 72.0628 44.84 71.7731 44.84 71.4346C44.84 70.8877 44.7424 70.4743 44.5471 70.1943C44.355 69.9144 44.0393 69.7744 43.5998 69.7744C43.4208 69.7744 43.2873 69.7988 43.1994 69.8477C43.1148 69.8932 43.0562 69.9762 43.0236 70.0967C42.9943 70.2139 42.9797 70.3929 42.9797 70.6338V73.0947H43.4094ZM54.6006 69.7744C54.376 69.7842 54.2132 69.8102 54.1123 69.8525C54.0114 69.8949 53.943 69.973 53.9072 70.0869C53.8714 70.2008 53.8535 70.3831 53.8535 70.6338V75.5947C53.8535 75.8454 53.8714 76.0277 53.9072 76.1416C53.943 76.2555 54.0114 76.3337 54.1123 76.376C54.2132 76.4183 54.376 76.4443 54.6006 76.4541V76.6543C54.2458 76.6348 53.7428 76.625 53.0918 76.625C52.3789 76.625 51.8532 76.6348 51.5146 76.6543V76.4541C51.736 76.4443 51.8971 76.4183 51.998 76.376C52.099 76.3337 52.1673 76.2555 52.2031 76.1416C52.2422 76.0277 52.2617 75.8454 52.2617 75.5947V70.6338C52.2617 70.3831 52.2422 70.2008 52.2031 70.0869C52.1673 69.973 52.099 69.8949 51.998 69.8525C51.8971 69.8102 51.736 69.7842 51.5146 69.7744V69.5742C51.8499 69.5938 52.3757 69.6035 53.0918 69.6035C53.7428 69.6035 54.2458 69.5938 54.6006 69.5742V69.7744ZM62.7742 69.4326C63.4773 69.4326 64.0942 69.5758 64.6248 69.8623C65.1587 70.1488 65.5721 70.5654 65.865 71.1123C66.158 71.6559 66.3045 72.3037 66.3045 73.0557C66.3045 73.7913 66.1531 74.4424 65.8504 75.0088C65.5509 75.5752 65.1326 76.0146 64.5955 76.3271C64.0584 76.6396 63.448 76.7959 62.7645 76.7959C62.0581 76.7959 61.438 76.6527 60.9041 76.3662C60.3735 76.0798 59.9617 75.6647 59.6688 75.1211C59.379 74.5742 59.2342 73.9248 59.2342 73.1729C59.2342 72.4372 59.3839 71.7861 59.6834 71.2197C59.9829 70.6533 60.4012 70.2139 60.9383 69.9014C61.4754 69.5889 62.0874 69.4326 62.7742 69.4326ZM62.7352 69.6133C62.3673 69.6133 62.0434 69.763 61.7635 70.0625C61.4868 70.3587 61.2719 70.7738 61.1189 71.3076C60.9692 71.8382 60.8943 72.4469 60.8943 73.1338C60.8943 73.8271 60.979 74.4375 61.1482 74.9648C61.3175 75.4922 61.547 75.8991 61.8367 76.1855C62.1264 76.472 62.4487 76.6152 62.8035 76.6152C63.1714 76.6152 63.4936 76.4671 63.7703 76.1709C64.0503 75.8714 64.2651 75.4564 64.4148 74.9258C64.5678 74.3919 64.6443 73.7816 64.6443 73.0947C64.6443 72.4046 64.5597 71.7959 64.3904 71.2686C64.2212 70.738 63.99 70.3294 63.6971 70.043C63.4074 69.7565 63.0867 69.6133 62.7352 69.6133ZM77.7252 76.2148C77.5429 76.4199 77.3476 76.568 77.1393 76.6592C76.9342 76.7503 76.6868 76.7959 76.3971 76.7959C76.013 76.7959 75.7086 76.7145 75.484 76.5518C75.2594 76.389 75.1129 76.109 75.0445 75.7119L74.8639 74.7158C74.8053 74.3936 74.7434 74.1348 74.6783 73.9395C74.6165 73.7409 74.5253 73.5846 74.4049 73.4707C74.2877 73.3535 74.1314 73.2949 73.9361 73.2949H73.2867V75.5947C73.2867 75.8454 73.3046 76.0277 73.3404 76.1416C73.3762 76.2555 73.4446 76.3337 73.5455 76.376C73.6464 76.4183 73.8092 76.4443 74.0338 76.4541V76.6543C73.679 76.6348 73.176 76.625 72.525 76.625C71.8121 76.625 71.2864 76.6348 70.9479 76.6543V76.4541C71.1692 76.4443 71.3303 76.4183 71.4313 76.376C71.5322 76.3337 71.6005 76.2555 71.6363 76.1416C71.6754 76.0277 71.6949 75.8454 71.6949 75.5947V70.6338C71.6949 70.3831 71.6754 70.2008 71.6363 70.0869C71.6005 69.973 71.5322 69.8949 71.4313 69.8525C71.3303 69.8102 71.1692 69.7842 70.9479 69.7744V69.5742C71.2864 69.5938 71.7926 69.6035 72.4664 69.6035C72.7333 69.6035 73.0296 69.6003 73.3551 69.5938C73.6806 69.5872 73.9068 69.584 74.0338 69.584C74.9518 69.584 75.6435 69.7354 76.109 70.0381C76.5745 70.3376 76.8072 70.7656 76.8072 71.3223C76.8072 71.6185 76.7372 71.9001 76.5973 72.167C76.4573 72.4339 76.2197 72.6667 75.8844 72.8652C75.5491 73.0605 75.1064 73.1908 74.5563 73.2559H74.566C74.9697 73.2917 75.3001 73.36 75.5572 73.4609C75.8176 73.5618 76.0211 73.7035 76.1676 73.8857C76.3141 74.0648 76.4166 74.2943 76.4752 74.5742L76.7047 75.6045C76.76 75.8747 76.8219 76.0618 76.8902 76.166C76.9619 76.2702 77.0611 76.3223 77.1881 76.3223C77.2662 76.319 77.3346 76.2995 77.3932 76.2637C77.4518 76.2279 77.5169 76.1709 77.5885 76.0928L77.7252 76.2148ZM73.7164 73.0947C74.0908 73.0947 74.3821 73.0231 74.5904 72.8799C74.802 72.7367 74.9469 72.5446 75.025 72.3037C75.1064 72.0628 75.1471 71.7731 75.1471 71.4346C75.1471 70.8877 75.0494 70.4743 74.8541 70.1943C74.662 69.9144 74.3463 69.7744 73.9068 69.7744C73.7278 69.7744 73.5943 69.7988 73.5064 69.8477C73.4218 69.8932 73.3632 69.9762 73.3307 70.0967C73.3014 70.2139 73.2867 70.3929 73.2867 70.6338V73.0947H73.7164Z" fill="#3A3A3A"/>
<circle cx="28.44" cy="27.362" r="25.9694" stroke="#3A3A3A"/>
<circle cx="43.1451" cy="27.362" r="25.9694" stroke="#3A3A3A"/>
<circle cx="54.9094" cy="27.362" r="25.9694" stroke="#3A3A3A"/>
<path fill-rule="evenodd" clip-rule="evenodd" d="M41.5 49.8926C49.2714 45.4014 54.5 37.007 54.5 27.3926C54.5 17.7782 49.2714 9.38378 41.5 4.89258C33.7286 9.38378 28.5 17.7782 28.5 27.3926C28.5 37.007 33.7286 45.4014 41.5 49.8926Z" fill="#3A3A3A"/>
</svg>
