<svg width="96" height="100" viewBox="0 0 96 100" fill="none" xmlns="http://www.w3.org/2000/svg">
<path d="M8.33519 70.5381L48.1724 1.53809L88.0095 70.5381H8.33519Z" stroke="#3A3A3A" stroke-width="1.5"/>
<path d="M45.2334 69.7206V71.0381H25.1309V41.2881H44.6384V42.6056H26.5759V55.2706H42.7259V56.5881H26.5759V69.7206H45.2334ZM59.1721 42.6056H48.2496V41.2881H71.4971V42.6056H60.5746V71.0381H59.1721V42.6056Z" fill="#3A3A3A"/>
<path d="M65.6724 38.5381L48.1724 8.03809L30.6724 38.5381H65.6724Z" stroke="#3A3A3A" stroke-width="1.5"/>
<path d="M7.01574 81.0941C6.52574 81.0941 6.08241 80.9868 5.68574 80.7721C5.29374 80.5528 4.98574 80.2541 4.76174 79.8761C4.53774 79.4934 4.42574 79.0641 4.42574 78.5881C4.42574 78.1121 4.53774 77.6851 4.76174 77.3071C4.98574 76.9244 5.29608 76.6258 5.69274 76.4111C6.08941 76.1918 6.53274 76.0821 7.02274 76.0821C7.40541 76.0821 7.75541 76.1474 8.07274 76.2781C8.39008 76.4041 8.66074 76.5931 8.88475 76.8451L8.42974 77.2861C8.06108 76.8988 7.60141 76.7051 7.05074 76.7051C6.68674 76.7051 6.35774 76.7868 6.06374 76.9501C5.76974 77.1134 5.53874 77.3398 5.37074 77.6291C5.20741 77.9138 5.12574 78.2334 5.12574 78.5881C5.12574 78.9428 5.20741 79.2648 5.37074 79.5541C5.53874 79.8388 5.76974 80.0628 6.06374 80.2261C6.35774 80.3894 6.68674 80.4711 7.05074 80.4711C7.59674 80.4711 8.05641 80.2751 8.42974 79.8831L8.88475 80.3241C8.66074 80.5761 8.38774 80.7674 8.06574 80.8981C7.74841 81.0288 7.39841 81.0941 7.01574 81.0941ZM14.7928 81.0941C14.2981 81.0941 13.8525 80.9868 13.4558 80.7721C13.0591 80.5528 12.7465 80.2518 12.5178 79.8691C12.2938 79.4864 12.1818 79.0594 12.1818 78.5881C12.1818 78.1168 12.2938 77.6898 12.5178 77.3071C12.7465 76.9244 13.0591 76.6258 13.4558 76.4111C13.8525 76.1918 14.2981 76.0821 14.7928 76.0821C15.2828 76.0821 15.7261 76.1918 16.1228 76.4111C16.5195 76.6258 16.8298 76.9244 17.0538 77.3071C17.2778 77.6851 17.3898 78.1121 17.3898 78.5881C17.3898 79.0641 17.2778 79.4934 17.0538 79.8761C16.8298 80.2541 16.5195 80.5528 16.1228 80.7721C15.7261 80.9868 15.2828 81.0941 14.7928 81.0941ZM14.7928 80.4711C15.1521 80.4711 15.4741 80.3894 15.7588 80.2261C16.0481 80.0628 16.2745 79.8388 16.4378 79.5541C16.6058 79.2648 16.6898 78.9428 16.6898 78.5881C16.6898 78.2334 16.6058 77.9138 16.4378 77.6291C16.2745 77.3398 16.0481 77.1134 15.7588 76.9501C15.4741 76.7868 15.1521 76.7051 14.7928 76.7051C14.4335 76.7051 14.1068 76.7868 13.8128 76.9501C13.5235 77.1134 13.2948 77.3398 13.1268 77.6291C12.9635 77.9138 12.8818 78.2334 12.8818 78.5881C12.8818 78.9428 12.9635 79.2648 13.1268 79.5541C13.2948 79.8388 13.5235 80.0628 13.8128 80.2261C14.1068 80.3894 14.4335 80.4711 14.7928 80.4711ZM25.4737 76.1381V81.0381H24.8997L21.9597 77.3841V81.0381H21.2597V76.1381H21.8337L24.7737 79.7921V76.1381H25.4737ZM31.1684 81.0941C30.7997 81.0941 30.4427 81.0381 30.0974 80.9261C29.7567 80.8094 29.4884 80.6601 29.2924 80.4781L29.5514 79.9321C29.738 80.1001 29.976 80.2378 30.2654 80.3451C30.5594 80.4478 30.8604 80.4991 31.1684 80.4991C31.5744 80.4991 31.8777 80.4314 32.0784 80.2961C32.279 80.1561 32.3794 79.9718 32.3794 79.7431C32.3794 79.5751 32.3234 79.4398 32.2114 79.3371C32.104 79.2298 31.9687 79.1481 31.8054 79.0921C31.6467 79.0361 31.4204 78.9731 31.1264 78.9031C30.7577 78.8144 30.459 78.7258 30.2304 78.6371C30.0064 78.5484 29.8127 78.4131 29.6494 78.2311C29.4907 78.0444 29.4114 77.7948 29.4114 77.4821C29.4114 77.2208 29.479 76.9851 29.6144 76.7751C29.7544 76.5651 29.9644 76.3971 30.2444 76.2711C30.5244 76.1451 30.872 76.0821 31.2874 76.0821C31.5767 76.0821 31.8614 76.1194 32.1414 76.1941C32.4214 76.2688 32.6617 76.3761 32.8624 76.5161L32.6314 77.0761C32.426 76.9454 32.2067 76.8474 31.9734 76.7821C31.74 76.7121 31.5114 76.6771 31.2874 76.6771C30.8907 76.6771 30.592 76.7494 30.3914 76.8941C30.1954 77.0388 30.0974 77.2254 30.0974 77.4541C30.0974 77.6221 30.1534 77.7598 30.2654 77.8671C30.3774 77.9698 30.515 78.0514 30.6784 78.1121C30.8464 78.1681 31.0727 78.2288 31.3574 78.2941C31.726 78.3828 32.0224 78.4714 32.2464 78.5601C32.4704 78.6488 32.6617 78.7841 32.8204 78.9661C32.9837 79.1481 33.0654 79.3931 33.0654 79.7011C33.0654 79.9578 32.9954 80.1934 32.8554 80.4081C32.7154 80.6181 32.503 80.7861 32.2184 80.9121C31.9337 81.0334 31.5837 81.0941 31.1684 81.0941ZM37.7927 76.7471H36.1127V76.1381H40.1657V76.7471H38.4857V81.0381H37.7927V76.7471ZM47.0041 81.0381L45.9471 79.5331C45.8164 79.5424 45.7137 79.5471 45.6391 79.5471H44.4281V81.0381H43.7281V76.1381H45.6391C46.2737 76.1381 46.7731 76.2898 47.1371 76.5931C47.5011 76.8964 47.6831 77.3141 47.6831 77.8461C47.6831 78.2241 47.5897 78.5461 47.4031 78.8121C47.2164 79.0781 46.9504 79.2718 46.6051 79.3931L47.7671 81.0381H47.0041ZM45.6181 78.9521C46.0614 78.9521 46.3997 78.8564 46.6331 78.6651C46.8664 78.4738 46.9831 78.2008 46.9831 77.8461C46.9831 77.4914 46.8664 77.2208 46.6331 77.0341C46.3997 76.8428 46.0614 76.7471 45.6181 76.7471H44.4281V78.9521H45.6181ZM53.644 81.0941C52.9907 81.0941 52.482 80.9074 52.118 80.5341C51.754 80.1608 51.572 79.6241 51.572 78.9241V76.1381H52.272V78.8961C52.272 79.9461 52.7317 80.4711 53.651 80.4711C54.099 80.4711 54.442 80.3428 54.68 80.0861C54.918 79.8248 55.037 79.4281 55.037 78.8961V76.1381H55.716V78.9241C55.716 79.6288 55.534 80.1678 55.17 80.5411C54.806 80.9098 54.2973 81.0941 53.644 81.0941ZM62.1421 81.0941C61.6521 81.0941 61.2088 80.9868 60.8121 80.7721C60.4201 80.5528 60.1121 80.2541 59.8881 79.8761C59.6641 79.4934 59.5521 79.0641 59.5521 78.5881C59.5521 78.1121 59.6641 77.6851 59.8881 77.3071C60.1121 76.9244 60.4224 76.6258 60.8191 76.4111C61.2158 76.1918 61.6591 76.0821 62.1491 76.0821C62.5318 76.0821 62.8818 76.1474 63.1991 76.2781C63.5164 76.4041 63.7871 76.5931 64.0111 76.8451L63.5561 77.2861C63.1874 76.8988 62.7278 76.7051 62.1771 76.7051C61.8131 76.7051 61.4841 76.7868 61.1901 76.9501C60.8961 77.1134 60.6651 77.3398 60.4971 77.6291C60.3338 77.9138 60.2521 78.2334 60.2521 78.5881C60.2521 78.9428 60.3338 79.2648 60.4971 79.5541C60.6651 79.8388 60.8961 80.0628 61.1901 80.2261C61.4841 80.3894 61.8131 80.4711 62.1771 80.4711C62.7231 80.4711 63.1828 80.2751 63.5561 79.8831L64.0111 80.3241C63.7871 80.5761 63.5141 80.7674 63.1921 80.8981C62.8748 81.0288 62.5248 81.0941 62.1421 81.0941ZM68.728 76.7471H67.048V76.1381H71.101V76.7471H69.421V81.0381H68.728V76.7471ZM74.6634 76.1381H75.3634V81.0381H74.6634V76.1381ZM81.8424 81.0941C81.3477 81.0941 80.9021 80.9868 80.5054 80.7721C80.1087 80.5528 79.7961 80.2518 79.5674 79.8691C79.3434 79.4864 79.2314 79.0594 79.2314 78.5881C79.2314 78.1168 79.3434 77.6898 79.5674 77.3071C79.7961 76.9244 80.1087 76.6258 80.5054 76.4111C80.9021 76.1918 81.3477 76.0821 81.8424 76.0821C82.3324 76.0821 82.7757 76.1918 83.1724 76.4111C83.5691 76.6258 83.8794 76.9244 84.1034 77.3071C84.3274 77.6851 84.4394 78.1121 84.4394 78.5881C84.4394 79.0641 84.3274 79.4934 84.1034 79.8761C83.8794 80.2541 83.5691 80.5528 83.1724 80.7721C82.7757 80.9868 82.3324 81.0941 81.8424 81.0941ZM81.8424 80.4711C82.2017 80.4711 82.5237 80.3894 82.8084 80.2261C83.0977 80.0628 83.3241 79.8388 83.4874 79.5541C83.6554 79.2648 83.7394 78.9428 83.7394 78.5881C83.7394 78.2334 83.6554 77.9138 83.4874 77.6291C83.3241 77.3398 83.0977 77.1134 82.8084 76.9501C82.5237 76.7868 82.2017 76.7051 81.8424 76.7051C81.4831 76.7051 81.1564 76.7868 80.8624 76.9501C80.5731 77.1134 80.3444 77.3398 80.1764 77.6291C80.0131 77.9138 79.9314 78.2334 79.9314 78.5881C79.9314 78.9428 80.0131 79.2648 80.1764 79.5541C80.3444 79.8388 80.5731 80.0628 80.8624 80.2261C81.1564 80.3894 81.4831 80.4711 81.8424 80.4711ZM92.5233 76.1381V81.0381H91.9493L89.0093 77.3841V81.0381H88.3093V76.1381H88.8833L91.8233 79.7921V76.1381H92.5233Z" fill="#3A3A3A"/>
</svg>
